<?xml version="1.0" encoding="UTF-8" standalone="no"?><!-- Generator: Gravit.io --><svg xmlns="http://www.w3.org/2000/svg" xmlns:xlink="http://www.w3.org/1999/xlink" style="isolation:isolate" viewBox="0 0 40 60" width="40pt" height="60pt"><defs><clipPath id="_clipPath_zMHNZsuN0B19EKPMMZt5D6RhmleTqWnK"><rect width="40" height="60"/></clipPath></defs><g clip-path="url(#_clipPath_zMHNZsuN0B19EKPMMZt5D6RhmleTqWnK)"><g><path d=" M 37.848 17.065 L 37.85 17.061 C 34.145 12.627 28.576 9.804 22.346 9.804 C 14.418 9.804 7.56 14.376 4.255 21.024 L 30.578 21.024 C 32.467 21.024 34.305 20.373 35.75 19.157 C 36.501 18.525 37.204 17.836 37.848 17.065 Z " fill-rule="evenodd" fill="rgb(255,255,255)"/><path d=" M 2.15 30 C 2.15 31.812 2.392 33.566 2.84 35.236 L 27.582 35.236 C 30.474 35.236 32.818 32.892 32.818 30 C 32.818 27.108 30.474 24.764 27.582 24.764 L 2.84 24.764 C 2.392 26.434 2.15 28.188 2.15 30 Z " fill-rule="evenodd" fill="rgb(255,255,255)"/><path d=" M 37.848 42.935 L 37.85 42.939 C 34.145 47.373 28.576 50.196 22.346 50.196 C 14.418 50.196 7.56 45.624 4.255 38.976 L 30.578 38.976 C 32.467 38.976 34.305 39.627 35.75 40.843 C 36.501 41.475 37.204 42.164 37.848 42.935 Z " fill-rule="evenodd" fill="rgb(255,255,255)"/></g></g></svg>