<?xml version="1.0" encoding="UTF-8" standalone="no"?><!-- Generator: Gravit.io --><svg xmlns="http://www.w3.org/2000/svg" xmlns:xlink="http://www.w3.org/1999/xlink" style="isolation:isolate" viewBox="0 0 40 60" width="40pt" height="60pt"><defs><clipPath id="_clipPath_B4rFfLl21t2nv7v4PuNGuUPMtuKCViuR"><rect width="40" height="60"/></clipPath></defs><g clip-path="url(#_clipPath_B4rFfLl21t2nv7v4PuNGuUPMtuKCViuR)"><g><path d=" M 36.813 18.591 L 20.967 33.381 C 20.425 33.886 19.576 33.886 19.034 33.381 L 3.187 18.591 L 36.813 18.591 Z " fill="rgb(255,255,255)"/><path d=" M 1.25 20.203 L 12.127 30.354 L 1.25 39.899 L 1.25 20.203 L 1.25 20.203 Z " fill="rgb(255,255,255)"/><path d=" M 3.32 41.409 L 13.964 32.069 L 17.328 35.208 C 18.077 35.908 19.038 36.257 20 36.257 C 20.962 36.257 21.924 35.907 22.673 35.208 L 25.879 32.216 L 36.618 41.409 L 3.32 41.409 L 3.32 41.409 Z " fill="rgb(255,255,255)"/><path d=" M 38.75 39.944 L 27.718 30.499 L 38.75 20.203 L 38.75 39.944 L 38.75 39.944 Z " fill="rgb(255,255,255)"/></g></g></svg>