<?xml version="1.0" encoding="UTF-8" standalone="no"?><!-- Generator: Gravit.io --><svg xmlns="http://www.w3.org/2000/svg" xmlns:xlink="http://www.w3.org/1999/xlink" style="isolation:isolate" viewBox="0 0 40 60" width="40pt" height="60pt"><defs><clipPath id="_clipPath_zkDRvWqdDdr0p051T6hSC7VNsv1plAaO"><rect width="40" height="60"/></clipPath></defs><g clip-path="url(#_clipPath_zkDRvWqdDdr0p051T6hSC7VNsv1plAaO)"><path d=" M 37.665 22.104 L 22.083 49.094 C 19.138 54.196 12.591 55.95 7.489 53.004 C 2.388 50.059 0.634 43.513 3.579 38.411 L 20.027 9.923 C 22.43 5.761 27.771 4.329 31.933 6.732 C 36.096 9.136 37.527 14.477 35.124 18.639 L 21.259 42.654 C 19.384 45.901 15.217 47.018 11.971 45.143 C 8.724 43.268 7.607 39.102 9.482 35.855 L 22.482 13.338 C 22.862 12.68 23.703 12.454 24.361 12.834 C 25.02 13.214 25.245 14.056 24.865 14.714 L 11.865 37.231 C 10.749 39.163 11.414 41.644 13.346 42.76 C 15.279 43.876 17.76 43.211 18.876 41.278 L 32.741 17.263 C 34.385 14.415 33.406 10.76 30.558 9.115 C 27.709 7.471 24.054 8.45 22.41 11.299 L 5.962 39.787 C 3.776 43.574 5.078 48.434 8.865 50.621 C 12.653 52.808 17.513 51.506 19.699 47.718 L 35.282 20.728 C 35.662 20.07 36.504 19.845 37.162 20.225 C 37.82 20.604 38.045 21.446 37.665 22.104 Z " fill="rgb(255,255,255)"/></g></svg>