<?xml version="1.0" encoding="UTF-8" standalone="no"?><!-- Generator: Gravit.io --><svg xmlns="http://www.w3.org/2000/svg" xmlns:xlink="http://www.w3.org/1999/xlink" style="isolation:isolate" viewBox="0 0 40 60" width="40pt" height="60pt"><defs><clipPath id="_clipPath_fszBs09aRh7GZWEqSLZMXJXlI3duKW6k"><rect width="40" height="60"/></clipPath></defs><g clip-path="url(#_clipPath_fszBs09aRh7GZWEqSLZMXJXlI3duKW6k)"><g><path d=" M 19.737 11.724 C 28.485 11.836 35.924 17.937 37.542 26.419 C 38.073 29.196 37.912 31.951 37.099 34.661 C 37.056 34.807 37.002 34.953 36.961 35.099 C 36.462 36.866 35.065 37.584 33.311 36.978 C 31.819 36.46 31.101 34.766 31.649 33.26 C 33.126 29.196 32.284 23.92 28.648 20.538 C 25.173 17.306 21.083 16.262 16.537 17.686 C 11.921 19.134 8.984 22.317 7.955 27.025 C 6.529 33.547 10.274 39.674 16.642 41.412 C 17.686 41.696 18.805 41.699 19.873 41.908 C 21.122 42.151 21.825 43.03 22.085 44.205 C 22.307 45.203 21.954 46.098 21.078 46.651 C 20.642 46.926 20.054 47.123 19.545 47.101 C 10.089 46.682 3.91 39.986 2.492 32.707 C 0.616 23.093 6.638 14.165 16.275 12.16 C 17.408 11.921 18.581 11.865 19.737 11.724 Z " fill="rgb(255,253,253)"/><path d=" M 23.129 30.731 C 24.093 30.668 24.83 31.406 25.429 32.282 C 28.147 36.25 30.848 40.231 33.542 44.217 C 34.394 45.478 34.16 46.519 32.897 47.364 C 32.656 47.524 32.393 47.661 32.174 47.85 C 31.25 48.646 29.376 48.259 28.709 47.24 C 27.582 45.512 26.4 43.818 25.229 42.117 C 23.618 39.772 21.993 37.438 20.382 35.092 C 19.946 34.457 19.511 33.805 19.766 32.965 C 19.791 32.885 19.813 32.8 19.844 32.722 C 20.195 31.848 21.942 30.707 23.129 30.731 Z " fill="rgb(255,253,253)"/></g></g></svg>