<?xml version="1.0" encoding="UTF-8" standalone="no"?><!-- Generator: Gravit.io --><svg xmlns="http://www.w3.org/2000/svg" xmlns:xlink="http://www.w3.org/1999/xlink" style="isolation:isolate" viewBox="0 0 40 60" width="40pt" height="60pt"><defs><clipPath id="_clipPath_QRrWeZpKCtnRn2Enyb9PphwB89J6hike"><rect width="40" height="60"/></clipPath></defs><g clip-path="url(#_clipPath_QRrWeZpKCtnRn2Enyb9PphwB89J6hike)"><rect width="40" height="60" style="fill:rgb(81,120,111)" fill-opacity="0"/><path d=" M 5.781 44.44 C 5.781 44.77 6.056 45.045 6.386 45.045 C 6.716 45.045 6.991 44.77 6.991 44.44 C 6.991 44.109 6.716 43.834 6.386 43.834 C 6.056 43.834 5.781 44.109 5.781 44.44 Z  M 3.883 44.109 C 3.883 44.44 4.158 44.715 4.488 44.715 C 4.818 44.715 5.093 44.44 5.093 44.109 C 5.093 43.779 4.818 43.504 4.488 43.504 C 4.158 43.504 3.883 43.779 3.883 44.109 Z  M 2.15 43.504 C 2.15 43.834 2.425 44.109 2.755 44.109 C 3.085 44.109 3.36 43.834 3.36 43.504 C 3.36 43.174 3.085 42.899 2.755 42.899 C 2.425 42.899 2.15 43.174 2.15 43.504 Z  M 29.516 23.344 C 29.269 26.7 26.601 29.395 23.245 29.642 C 23.493 26.259 26.161 23.592 29.516 23.344 Z  M 22.09 29.642 C 21.98 29.642 21.87 29.642 21.76 29.615 C 21.623 29.615 21.513 29.587 21.375 29.587 C 21.265 29.587 21.155 29.56 21.045 29.56 C 20.935 29.532 20.798 29.532 20.688 29.505 C 20.578 29.477 20.468 29.477 20.385 29.45 C 20.275 29.422 20.138 29.395 20.028 29.395 C 19.917 29.367 19.807 29.34 19.725 29.34 C 19.615 29.312 19.477 29.285 19.367 29.257 C 19.257 29.23 19.175 29.202 19.065 29.175 C 18.955 29.147 18.845 29.12 18.707 29.065 C 18.597 29.037 18.515 29.01 18.405 28.982 C 18.295 28.955 18.185 28.9 18.075 28.872 C 17.965 28.845 17.882 28.79 17.772 28.762 C 17.662 28.707 17.552 28.68 17.442 28.625 C 17.36 28.597 17.25 28.542 17.167 28.515 C 17.057 28.46 16.947 28.405 16.837 28.377 C 16.755 28.322 16.645 28.295 16.562 28.24 C 16.452 28.185 16.342 28.13 16.232 28.075 C 16.149 28.02 16.039 27.992 15.957 27.937 C 15.847 27.882 15.737 27.827 15.654 27.745 C 15.572 27.69 15.489 27.635 15.407 27.58 C 15.297 27.525 15.214 27.442 15.104 27.387 C 15.022 27.332 14.939 27.277 14.857 27.222 C 14.747 27.14 14.664 27.085 14.554 27.002 C 14.472 26.947 14.389 26.892 14.307 26.837 C 14.197 26.755 14.114 26.672 14.004 26.617 C 13.922 26.562 13.867 26.507 13.784 26.452 C 13.674 26.369 13.592 26.287 13.482 26.204 C 13.427 26.149 13.344 26.094 13.289 26.039 C 13.179 25.957 13.097 25.847 12.987 25.764 C 12.932 25.709 12.877 25.654 12.821 25.599 C 12.711 25.489 12.601 25.379 12.491 25.242 C 12.464 25.187 12.409 25.159 12.381 25.104 C 12.244 24.939 12.079 24.774 11.941 24.609 C 11.914 24.582 11.886 24.554 11.886 24.527 C 11.776 24.389 11.666 24.252 11.556 24.087 C 11.501 24.032 11.474 23.949 11.419 23.894 C 11.336 23.784 11.254 23.674 11.171 23.537 C 11.116 23.454 11.089 23.399 11.034 23.317 C 10.951 23.207 10.896 23.097 10.814 22.987 C 10.759 22.904 10.731 22.821 10.676 22.739 C 10.621 22.629 10.539 22.519 10.484 22.409 C 10.429 22.326 10.401 22.244 10.346 22.161 C 10.291 22.051 10.236 21.941 10.181 21.831 C 10.126 21.749 10.099 21.639 10.044 21.556 C 9.989 21.446 9.934 21.336 9.906 21.226 C 9.879 21.144 9.824 21.034 9.796 20.951 C 9.741 20.841 9.714 20.731 9.659 20.621 C 9.631 20.539 9.576 20.429 9.549 20.319 C 9.521 20.209 9.466 20.099 9.439 19.989 C 9.411 19.879 9.384 19.796 9.356 19.686 C 9.329 19.576 9.301 19.466 9.246 19.329 C 9.218 19.218 9.191 19.136 9.163 19.026 C 9.136 18.916 9.108 18.778 9.081 18.668 C 9.053 18.558 9.026 18.476 9.026 18.366 C 8.998 18.256 8.971 18.118 8.971 18.008 C 8.943 17.898 8.943 17.788 8.916 17.706 C 8.888 17.596 8.888 17.458 8.861 17.348 C 8.861 17.238 8.833 17.128 8.833 17.018 C 8.833 16.881 8.806 16.771 8.806 16.633 C 8.806 16.523 8.806 16.413 8.778 16.303 C 8.778 16.248 8.778 16.193 8.778 16.138 C 8.806 16.138 8.833 16.138 8.861 16.138 C 8.971 16.138 9.053 16.138 9.163 16.166 C 9.301 16.166 9.411 16.193 9.549 16.193 C 9.659 16.193 9.741 16.221 9.851 16.221 C 9.961 16.221 10.099 16.248 10.209 16.276 C 10.319 16.276 10.401 16.303 10.511 16.331 C 10.621 16.358 10.759 16.358 10.869 16.386 C 10.979 16.413 11.061 16.413 11.171 16.441 C 11.281 16.468 11.391 16.496 11.529 16.523 C 11.639 16.551 11.721 16.578 11.831 16.606 C 11.941 16.633 12.051 16.661 12.161 16.688 C 12.271 16.716 12.354 16.743 12.464 16.771 C 12.574 16.798 12.684 16.853 12.794 16.881 C 12.904 16.908 12.987 16.936 13.097 16.991 C 13.207 17.018 13.317 17.073 13.427 17.101 C 13.509 17.128 13.619 17.183 13.702 17.211 C 13.812 17.266 13.922 17.293 14.032 17.348 C 14.114 17.403 14.224 17.431 14.307 17.486 C 14.417 17.541 14.527 17.596 14.609 17.651 C 14.692 17.706 14.802 17.733 14.884 17.788 C 14.994 17.843 15.077 17.898 15.187 17.953 C 15.269 18.008 15.352 18.063 15.462 18.091 C 15.572 18.146 15.654 18.228 15.764 18.283 C 15.847 18.338 15.929 18.393 16.012 18.448 C 16.122 18.503 16.204 18.586 16.314 18.668 C 16.397 18.723 16.48 18.778 16.562 18.833 C 16.672 18.916 16.782 18.998 16.865 19.081 C 16.947 19.136 17.002 19.191 17.085 19.246 C 17.195 19.329 17.305 19.439 17.415 19.521 C 17.47 19.576 17.525 19.631 17.58 19.659 C 17.745 19.796 17.91 19.961 18.075 20.126 C 20.688 22.656 22.173 26.067 22.283 29.697 C 22.173 29.642 22.118 29.642 22.09 29.642 Z  M 18.212 15.726 C 17.937 15.808 17.772 16.111 17.882 16.386 C 17.965 16.661 18.267 16.826 18.542 16.716 C 19.917 16.276 21.348 16.056 22.805 16.056 C 30.506 16.056 36.777 22.326 36.777 30.028 C 36.777 37.729 30.506 43.999 22.805 43.999 C 20.578 43.999 18.487 43.477 16.617 42.542 C 17.36 42.047 18.075 41.469 18.762 40.809 C 21.513 38.114 23.108 34.538 23.273 30.688 C 27.371 30.413 30.644 27.002 30.644 22.821 L 30.644 22.766 C 30.644 22.491 30.396 22.244 30.121 22.244 C 26.931 22.244 24.208 24.114 22.97 26.837 C 22.338 24.004 20.908 21.391 18.79 19.329 C 15.984 16.578 12.244 15.065 8.311 15.065 C 8.311 15.065 8.283 15.065 8.283 15.065 C 8.283 15.065 8.256 15.065 8.256 15.065 C 8.228 15.065 8.228 15.065 8.201 15.065 C 8.173 15.065 8.173 15.065 8.146 15.093 C 8.118 15.093 8.118 15.093 8.091 15.12 C 8.063 15.12 8.063 15.148 8.036 15.148 C 8.008 15.148 8.008 15.175 7.981 15.175 C 7.953 15.175 7.953 15.203 7.953 15.203 C 7.953 15.203 7.926 15.23 7.926 15.23 C 7.926 15.23 7.898 15.258 7.898 15.258 C 7.898 15.258 7.871 15.285 7.871 15.285 C 7.871 15.313 7.843 15.313 7.843 15.34 C 7.843 15.34 7.816 15.368 7.816 15.368 C 7.816 15.395 7.788 15.423 7.788 15.423 C 7.788 15.423 7.788 15.45 7.788 15.45 C 7.788 15.478 7.788 15.505 7.788 15.56 L 7.788 15.67 C 7.788 15.918 7.788 16.193 7.816 16.441 C 7.816 16.523 7.816 16.606 7.843 16.688 C 7.843 16.853 7.871 17.018 7.871 17.183 C 7.871 17.293 7.898 17.376 7.898 17.486 C 7.926 17.623 7.926 17.788 7.953 17.926 C 7.981 18.036 7.981 18.118 8.008 18.228 C 8.036 18.366 8.063 18.503 8.091 18.641 C 8.118 18.751 8.146 18.861 8.173 18.943 C 8.201 19.081 8.228 19.218 8.256 19.356 C 8.283 19.466 8.311 19.549 8.338 19.659 C 8.366 19.796 8.421 19.934 8.448 20.044 C 8.476 20.154 8.503 20.236 8.558 20.346 C 8.613 20.484 8.641 20.594 8.696 20.731 C 8.723 20.841 8.778 20.924 8.806 21.034 C 8.861 21.171 8.888 21.281 8.943 21.419 C 8.998 21.529 9.026 21.611 9.081 21.721 C 9.136 21.831 9.191 21.969 9.246 22.079 C 9.301 22.189 9.329 22.271 9.384 22.354 C 9.439 22.464 9.494 22.601 9.576 22.711 C 9.631 22.794 9.686 22.904 9.741 22.987 C 9.796 23.097 9.879 23.207 9.934 23.344 C 9.989 23.427 10.044 23.537 10.099 23.619 C 10.181 23.729 10.236 23.839 10.319 23.949 C 10.374 24.032 10.429 24.114 10.511 24.224 C 10.594 24.334 10.676 24.444 10.731 24.554 C 10.786 24.637 10.869 24.719 10.924 24.802 C 11.006 24.912 11.089 25.022 11.171 25.104 C 11.226 25.187 11.309 25.269 11.364 25.352 C 11.446 25.462 11.529 25.544 11.611 25.654 C 11.694 25.737 11.749 25.819 11.831 25.874 C 11.914 25.984 12.024 26.067 12.106 26.149 C 12.189 26.232 12.244 26.287 12.326 26.369 C 12.409 26.452 12.519 26.562 12.601 26.645 C 12.684 26.727 12.766 26.782 12.849 26.865 C 12.959 26.947 13.042 27.03 13.152 27.112 C 13.234 27.167 13.317 27.25 13.399 27.305 C 13.509 27.387 13.619 27.47 13.702 27.552 C 13.784 27.607 13.867 27.69 13.949 27.745 C 14.059 27.827 14.169 27.91 14.279 27.965 C 14.362 28.02 14.444 28.075 14.554 28.13 C 14.664 28.212 14.774 28.267 14.884 28.35 C 14.967 28.405 15.077 28.46 15.159 28.515 C 15.269 28.57 15.379 28.652 15.489 28.707 C 15.572 28.762 15.682 28.817 15.764 28.872 C 15.874 28.927 16.012 28.982 16.122 29.065 C 16.232 29.12 16.314 29.147 16.424 29.202 C 16.535 29.257 16.672 29.312 16.782 29.367 C 16.892 29.422 16.975 29.45 17.085 29.505 C 17.195 29.56 17.332 29.615 17.442 29.642 C 17.552 29.67 17.662 29.725 17.745 29.752 C 17.882 29.807 17.992 29.835 18.13 29.89 C 18.24 29.917 18.35 29.972 18.46 30 C 18.597 30.028 18.707 30.083 18.845 30.11 C 18.955 30.138 19.065 30.165 19.175 30.193 C 19.312 30.22 19.422 30.248 19.56 30.275 C 19.67 30.303 19.78 30.33 19.89 30.358 C 20.028 30.385 20.138 30.413 20.275 30.44 C 20.385 30.468 20.495 30.468 20.633 30.495 C 20.77 30.523 20.88 30.523 21.018 30.55 C 21.128 30.578 21.265 30.578 21.375 30.578 C 21.513 30.578 21.623 30.605 21.76 30.605 C 21.87 30.605 22.008 30.633 22.118 30.633 C 22.145 30.633 22.2 30.633 22.228 30.633 C 22.063 34.181 20.578 37.509 18.047 39.984 C 17.305 40.727 16.48 41.359 15.599 41.882 C 11.556 39.434 8.861 35.006 8.861 29.945 C 8.861 28.542 9.081 27.167 9.466 25.847 C 9.549 25.572 9.384 25.269 9.108 25.187 C 8.833 25.104 8.531 25.269 8.448 25.544 C 8.008 26.975 7.788 28.46 7.788 29.972 C 7.788 35.198 10.484 39.791 14.527 42.487 C 12.601 43.449 10.484 43.972 8.283 43.972 C 7.981 43.972 7.761 44.219 7.761 44.495 C 7.761 44.797 8.008 45.017 8.283 45.017 C 10.869 45.017 13.372 44.357 15.599 43.119 C 17.745 44.302 20.22 44.99 22.833 44.99 C 31.112 44.99 37.85 38.251 37.85 29.972 C 37.85 21.694 31.112 14.955 22.833 14.955 C 21.21 15.038 19.67 15.258 18.212 15.726 Z " fill="rgb(255,255,255)"/></g></svg>